<?xml version="1.0" standalone="no"?>
<!DOCTYPE svg PUBLIC "-//W3C//DTD SVG 20010904//EN"
 "http://www.w3.org/TR/2001/REC-SVG-20010904/DTD/svg10.dtd">
<svg version="1.0" xmlns="http://www.w3.org/2000/svg"
 width="1857.000000pt" height="1857.000000pt" viewBox="0 0 1857.000000 1857.000000"
 preserveAspectRatio="xMidYMid meet">
<metadata>
Created by potrace 1.11, written by Peter Selinger 2001-2013
</metadata>
<g transform="translate(0.000000,1857.000000) scale(0.100000,-0.100000)"
fill="#000000" stroke="none">
<path d="M8945 18320 c-1348 -88 -2531 -602 -3465 -1507 -869 -841 -1420
-1930 -1569 -3103 -118 -922 -16 -1764 310 -2573 115 -284 206 -470 389 -797
48 -85 176 -314 284 -508 308 -553 416 -726 1091 -1762 632 -968 905 -1405
1187 -1900 833 -1457 1388 -2791 1762 -4230 71 -276 126 -525 246 -1110 115
-565 119 -584 125 -578 2 2 56 269 120 593 151 767 200 987 315 1405 390 1418
987 2767 1896 4286 272 455 539 876 1069 1684 741 1131 908 1414 1317 2240
329 664 400 830 489 1142 175 608 231 1226 174 1886 -82 926 -382 1752 -918
2524 -930 1340 -2362 2152 -4052 2298 -168 14 -614 20 -770 10z m814 -395
c1800 -179 3280 -1184 4070 -2763 337 -674 493 -1355 495 -2157 1 -468 -51
-848 -174 -1284 -81 -287 -144 -435 -443 -1041 -409 -830 -617 -1185 -1339
-2280 -332 -504 -416 -634 -637 -985 -163 -258 -221 -351 -373 -600 -466 -765
-943 -1679 -1270 -2435 -299 -692 -558 -1438 -744 -2141 l-48 -181 -18 69
c-298 1114 -670 2090 -1204 3163 -415 833 -798 1491 -1461 2513 -137 211 -259
399 -477 732 -180 275 -282 435 -520 813 -134 214 -173 281 -391 672 -106 190
-244 438 -308 551 -396 709 -582 1278 -659 2004 -26 257 -14 748 28 1080 134
1061 615 2033 1394 2816 189 191 324 310 520 460 772 591 1712 938 2735 1009
177 12 636 4 824 -15z"/>
<path d="M8995 16504 c-421 -42 -692 -103 -1017 -230 -671 -260 -1235 -709
-1636 -1302 -321 -474 -508 -981 -584 -1582 -17 -140 -17 -620 0 -760 76 -601
263 -1108 584 -1582 251 -370 566 -685 936 -936 474 -321 981 -508 1582 -584
140 -17 620 -17 760 0 601 76 1108 263 1582 584 786 532 1327 1368 1487 2298
39 227 46 321 46 600 0 279 -7 373 -46 600 -67 389 -213 796 -409 1135 -482
838 -1269 1432 -2205 1664 -280 69 -461 91 -780 96 -143 1 -278 1 -300 -1z"/>
</g>
</svg>
